# 3ds Max Wavefront OBJ Exporter v0.97b - (c)2007 guruware
# File Created: 09.09.2017 23:39:12

#
# object Platform1_Rock
#

v  7.9182 10.5476 -8.0848
v  8.0040 10.6388 -7.7208
v  8.9709 10.5949 -8.0376
v  8.5788 10.3278 -8.3171
v  8.5120 9.9464 -8.3467
v  7.9483 9.9302 -8.3648
v  7.2906 10.0585 -7.5960
v  7.7056 9.6431 -7.7538
v  7.5284 9.1173 -7.7006
v  8.0894 9.5036 -7.7340
v  9.2607 9.3070 -7.6863
v  7.5762 9.1032 -6.9853
v  7.3843 10.2720 -6.9792
v  9.1247 11.1765 -7.3284
v  7.9841 11.2350 -7.4324
v  7.7392 11.1512 -7.0237
v  9.1517 11.0550 -7.6493
v  9.4003 11.1742 -7.1933
v  9.4789 10.3661 -7.5989
v  9.4338 9.6824 -6.9475
v  9.3777 9.5825 -7.6862
v  9.5060 10.1686 -7.0210
v  7.8129 9.0252 -7.6435
v  9.0187 9.0832 -7.5917
v  8.9370 9.0824 -6.9723
v  7.2017 10.5016 -7.3165
v  7.7128 11.0750 -7.7095
v  7.3766 10.1686 -7.8410
v  7.8228 9.7244 -7.9561
v  9.1368 9.7819 -8.0169
v  7.2206 10.5811 -6.9965
v  8.9472 10.6604 -7.7201
v  7.8975 9.8702 -8.1225
v  7.8065 9.7682 -8.0737
v  7.9419 10.2066 -8.3336
v  8.0062 10.3863 -8.1091
v  9.2860 9.2589 -6.9783
v  8.6000 10.4105 -8.1505
v  8.5151 9.9133 -8.1029
# 39 vertices

vn -0.6211 0.5615 -0.5469
vn -0.1537 0.4538 -0.8778
vn 0.5182 0.6292 -0.5793
vn 0.6154 0.4091 -0.6738
vn 0.5360 -0.5478 -0.6424
vn -0.4858 -0.4951 -0.7203
vn -0.9451 -0.2350 -0.2269
vn -0.3787 -0.3586 -0.8532
vn -0.5521 -0.6164 -0.5615
vn -0.0149 -0.4606 -0.8875
vn 0.5742 -0.4570 -0.6793
vn -0.6083 -0.7917 0.0569
vn -0.9122 -0.3241 0.2508
vn 0.1237 0.9462 -0.2989
vn -0.1097 0.9816 -0.1560
vn -0.4977 0.8671 0.0211
vn 0.3480 0.5586 -0.7529
vn 0.7738 0.5094 -0.3765
vn 0.8008 0.0750 -0.5943
vn 0.9709 -0.2357 -0.0418
vn 0.7929 -0.2856 -0.5384
vn 0.9972 -0.0542 -0.0508
vn -0.2114 -0.9518 -0.2224
vn 0.2872 -0.8446 -0.4518
vn 0.2185 -0.9748 0.0456
vn -0.9721 0.1893 -0.1382
vn -0.3896 0.6222 -0.6790
vn -0.6116 -0.0095 -0.7911
vn -0.6748 -0.5775 -0.4595
vn 0.4768 -0.3457 -0.8082
vn -0.9742 0.2151 0.0690
vn 0.3255 0.4689 -0.8211
vn -0.4189 -0.3868 -0.8215
vn -0.7417 -0.4004 -0.5381
vn -0.6608 0.3994 -0.6355
vn -0.2357 0.3736 -0.8972
vn 0.7731 -0.6342 -0.0093
vn 0.2322 0.4800 -0.8460
vn 0.3042 -0.5163 -0.8006
# 39 vertex normals

vt 0.4344 0.3457 0.0000
vt 0.4101 0.2706 0.0000
vt 0.6772 0.3499 0.0000
vt 0.5649 0.4153 0.0000
vt 0.5340 0.4863 0.0000
vt 0.4303 0.4895 0.0000
vt 0.1659 0.4465 0.0000
vt 0.2922 0.5789 0.0000
vt 0.2499 0.7129 0.0000
vt 0.4026 0.6380 0.0000
vt 0.7232 0.7244 0.0000
vt 0.1428 0.8429 0.0000
vt 0.0019 0.3868 0.0000
vt 0.8022 0.0974 0.0000
vt 0.3947 0.0968 0.0000
vt 0.2648 0.0019 0.0000
vt 0.7814 0.1887 0.0000
vt 0.9228 0.1470 0.0000
vt 0.8456 0.4315 0.0000
vt 0.9385 0.7370 0.0000
vt 0.7780 0.6607 0.0000
vt 0.9980 0.5404 0.0000
vt 0.3340 0.7417 0.0000
vt 0.6533 0.7833 0.0000
vt 0.6397 0.9615 0.0000
vt 0.1182 0.2950 0.0000
vt 0.3289 0.1667 0.0000
vt 0.2345 0.4165 0.0000
vt 0.3396 0.5439 0.0000
vt 0.6949 0.5781 0.0000
vt 0.0393 0.2395 0.0000
vt 0.7155 0.2923 0.0000
vt 0.3868 0.5152 0.0000
vt 0.3590 0.5351 0.0000
vt 0.4429 0.4365 0.0000
vt 0.4432 0.3809 0.0000
vt 0.8094 0.8834 0.0000
vt 0.5899 0.3925 0.0000
vt 0.5542 0.5295 0.0000
# 39 texture coords

o Platform1_Rock
g Platform1_Rock
f 1/1/1 2/2/2 3/3/3 
f 4/4/4 5/5/5 6/6/6 
f 7/7/7 8/8/8 9/9/9 
f 10/10/10 11/11/11 9/9/9 
f 12/12/12 13/13/13 7/7/7 
f 14/14/14 15/15/15 16/16/16 
f 17/17/17 15/15/15 14/14/14 
f 17/17/17 18/18/18 19/19/19 
f 20/20/20 21/21/21 22/22/22 
f 23/23/23 24/24/24 25/25/25 
f 26/26/26 27/27/27 28/28/28 
f 17/17/17 2/2/2 27/27/27 
f 2/2/2 1/1/1 29/29/29 
f 30/30/30 21/21/21 10/10/10 
f 3/3/3 21/21/21 30/30/30 
f 7/7/7 9/9/9 12/12/12 
f 9/9/9 25/25/25 12/12/12 
f 27/27/27 31/31/31 16/16/16 
f 32/32/32 3/3/3 2/2/2 
f 3/3/3 32/32/32 21/21/21 
f 1/1/1 33/33/33 34/34/34 
f 4/4/4 35/35/35 36/36/36 
f 10/10/10 21/21/21 11/11/11 
f 37/37/37 11/11/11 21/21/21 
f 27/27/27 2/2/2 28/28/28 
f 28/28/28 2/2/2 29/29/29 
f 32/32/32 17/17/17 19/19/19 
f 2/2/2 17/17/17 32/32/32 
f 19/19/19 18/18/18 22/22/22 
f 24/24/24 37/37/37 25/25/25 
f 38/38/38 3/3/3 30/30/30 
f 36/36/36 3/3/3 38/38/38 
f 33/33/33 36/36/36 35/35/35 
f 6/6/6 39/39/39 33/33/33 
f 34/34/34 30/30/30 10/10/10 
f 29/29/29 8/8/8 28/28/28 
f 32/32/32 19/19/19 21/21/21 
f 19/19/19 22/22/22 21/21/21 
f 1/1/1 3/3/3 36/36/36 
f 1/1/1 36/36/36 33/33/33 
f 7/7/7 26/26/26 28/28/28 
f 7/7/7 28/28/28 8/8/8 
f 8/8/8 29/29/29 10/10/10 
f 8/8/8 10/10/10 9/9/9 
f 38/38/38 30/30/30 39/39/39 
f 17/17/17 14/14/14 18/18/18 
f 4/4/4 38/38/38 39/39/39 
f 4/4/4 36/36/36 38/38/38 
f 31/31/31 7/7/7 13/13/13 
f 37/37/37 21/21/21 20/20/20 
f 11/11/11 24/24/24 23/23/23 
f 24/24/24 11/11/11 37/37/37 
f 5/5/5 4/4/4 39/39/39 
f 6/6/6 5/5/5 39/39/39 
f 9/9/9 11/11/11 23/23/23 
f 9/9/9 23/23/23 25/25/25 
f 6/6/6 33/33/33 35/35/35 
f 35/35/35 4/4/4 6/6/6 
f 34/34/34 10/10/10 29/29/29 
f 1/1/1 34/34/34 29/29/29 
f 26/26/26 31/31/31 27/27/27 
f 7/7/7 31/31/31 26/26/26 
f 17/17/17 27/27/27 15/15/15 
f 15/15/15 27/27/27 16/16/16 
f 34/34/34 33/33/33 39/39/39 30/30/30 
# 1 polygons - 64 triangles

