# 3ds Max Wavefront OBJ Exporter v0.97b - (c)2007 guruware
# File Created: 10.09.2017 21:46:00

#
# object Fence_2_low
#

v  -0.0405 -0.2575 0.0578
v  0.0405 -0.2575 0.0578
v  0.0627 0.2358 0.0829
v  -0.0627 0.2358 0.0829
v  0.0578 -0.2575 0.0405
v  0.0578 -0.2575 -0.0405
v  0.0829 0.2358 -0.0627
v  0.0829 0.2358 0.0627
v  0.0405 -0.2575 -0.0578
v  -0.0405 -0.2575 -0.0578
v  -0.0627 0.2358 -0.0829
v  0.0627 0.2358 -0.0829
v  -0.0578 -0.2575 -0.0405
v  -0.0578 -0.2575 0.0405
v  -0.0829 0.2358 0.0627
v  -0.0829 0.2358 -0.0627
v  -0.0483 0.2575 0.0684
v  0.0483 0.2575 0.0684
v  0.0684 0.2575 0.0483
v  0.0684 0.2575 -0.0483
v  0.0483 0.2575 -0.0684
v  -0.0483 0.2575 -0.0684
v  -0.0684 0.2575 -0.0483
v  -0.0684 0.2575 0.0483
# 24 vertices

vn -0.3768 -0.0640 0.9241
vn 0.3768 -0.0640 0.9241
vn 0.3861 0.3000 0.8723
vn -0.3861 0.3000 0.8723
vn 0.9241 -0.0640 0.3768
vn 0.9241 -0.0640 -0.3768
vn 0.8723 0.3000 -0.3861
vn 0.8723 0.3000 0.3861
vn 0.3768 -0.0640 -0.9241
vn -0.3768 -0.0640 -0.9241
vn -0.3861 0.3000 -0.8723
vn 0.3861 0.3000 -0.8723
vn -0.9241 -0.0640 -0.3768
vn -0.9241 -0.0640 0.3768
vn -0.8723 0.3000 0.3861
vn -0.8723 0.3000 -0.3861
vn -0.1522 0.8651 0.4779
vn 0.1522 0.8651 0.4779
vn 0.4779 0.8651 0.1522
vn 0.4779 0.8651 -0.1522
vn 0.1522 0.8651 -0.4779
vn -0.1522 0.8651 -0.4779
vn -0.4779 0.8651 -0.1522
vn -0.4779 0.8651 0.1522
# 24 vertex normals

vt 0.4134 0.1306 0.5000
vt 0.4809 0.0274 0.5000
vt 0.9759 0.3109 1.4579
vt 0.8712 0.4708 1.4579
vt 0.0620 0.4559 0.5000
vt 0.1636 0.3861 0.5000
vt 0.5142 0.8361 1.4579
vt 0.3567 0.9443 1.4579
vt 0.1929 0.3630 0.5000
vt 0.2846 0.2806 0.5000
vt 0.6904 0.6815 1.4579
vt 0.5483 0.8092 1.4579
vt 0.3107 0.2539 0.5000
vt 0.3910 0.1604 0.5000
vt 0.8452 0.5055 1.4579
vt 0.7207 0.6505 1.4579
vt 0.7600 0.7149 1.5000
vt 0.7325 0.6828 1.4579
vt 0.9437 0.6828 1.4579
vt 0.9162 0.7149 1.5000
vt 0.9470 0.7477 1.5000
vt 0.9801 0.7210 1.4579
vt 0.9801 0.9322 1.4579
vt 0.9470 0.9055 1.5000
vt 0.9162 0.9383 1.5000
vt 0.9437 0.9704 1.4579
vt 0.7325 0.9704 1.4579
vt 0.7600 0.9383 1.5000
vt 0.7291 0.9055 1.5000
vt 0.6961 0.9322 1.4579
vt 0.6961 0.7210 1.4579
vt 0.7291 0.7477 1.5000
vt 0.0300 0.4750 0.5000
vt 0.3194 0.9665 1.4579
# 34 texture coords

o Fence_2_low
g Fence_2_low
f 1/1/1 2/2/2 3/3/3 4/4/4 
f 5/5/5 6/6/6 7/7/7 8/8/8 
f 9/9/9 10/10/10 11/11/11 12/12/12 
f 13/13/13 14/14/14 15/15/15 16/16/16 
f 17/17/17 4/18/4 3/19/3 18/20/18 
f 19/21/19 8/22/8 7/23/7 20/24/20 
f 21/25/21 12/26/12 11/27/11 22/28/22 
f 23/29/23 16/30/16 15/31/15 24/32/24 
f 2/33/2 5/5/5 8/8/8 3/34/3 
f 4/4/4 15/15/15 14/14/14 1/1/1 
f 6/6/6 9/9/9 12/12/12 7/7/7 
f 10/10/10 13/13/13 16/16/16 11/11/11 
f 17/17/17 24/32/24 15/31/15 4/18/4 
f 19/21/19 18/20/18 3/19/3 8/22/8 
f 23/29/23 22/28/22 11/27/11 16/30/16 
f 21/25/21 20/24/20 7/23/7 12/26/12 
f 22/28/22 17/17/17 18/20/18 21/25/21 
f 18/20/18 19/21/19 20/24/20 21/25/21 
f 22/28/22 23/29/23 24/32/24 17/17/17 
# 19 polygons

